<?xml version="1.0" encoding="UTF-8"?><svg id="Layer_1" xmlns="http://www.w3.org/2000/svg" viewBox="0 0 916 336.68"><defs><style>.cls-1{fill:#4285f4;}.cls-2{fill:#f4b400;}</style></defs><path class="cls-1" d="M77.76,140.24c-1.71,4.82-3.29,9.3-4.89,13.81-.58,0-1.01.09-1.39-.01-13.4-3.79-26.14-9.04-37.38-17.42-15.7-11.71-25.79-27.22-28.97-46.51C-2.89,41.44,30.78,8.06,64.52,1.57c19.05-3.67,37.21-.85,54.55,7.8,15.01,7.49,26.42,18.77,35.17,32.92.89,1.44,1.75,2.89,2.73,4.52.67-.44,1.21-.73,1.66-1.11,12.11-10.16,25.26-18.76,39.04-26.45,10.02-5.59,20.11-11.08,29.66-18.09,2.34,2.66,4.62,5.26,6.94,7.91-.4.63-.67,1.07-.95,1.5-1.98,2.99-2.29,6.19-.78,9.4,1.13,2.39,2.37,4.79,3.94,6.91,8.28,11.18,18.02,20.96,28.86,29.65.58.47,1.22.85,1.82,1.29,3.18,2.32,6.49,3.62,10.33,1.48.61-.34,1.39-.36,2.28-.57,1.54,3.13,3.02,6.14,4.36,8.86-15.97,12.97-31.64,25.69-47.52,38.59,6.18,6.41,9.45,14.21,12.07,22.31,1.27,3.94,2.46,7.94,3.29,11.99,2.24,10.93,4.2,21.92,6.41,32.86,3.02,14.91,6.32,29.76,12.34,43.81,1.58,3.69,3.75,7.14,5.83,10.59.8,1.34,2,2.5,3.18,3.55,3.65,3.26,7.26,3.57,11.28.75,2.6-1.82,4.94-4.02,7.38-6.07.8-.67,1.53-1.41,2.44-2.25,3.23,3.52,6.3,6.87,9.59,10.46-3.54,3.41-6.73,6.85-10.29,9.85-6.59,5.55-13.4,10.82-20.09,16.25-5.53,4.48-11.01,9.02-16.55,13.49-.53.43-1.28.8-1.94.82-2.96.09-5.92.04-8.17.04-1.84-2.18-3.23-3.86-4.65-5.52-.34-.4-.74-.77-1.16-1.09-11.35-8.82-17.84-20.91-22.77-34.02-4.46-11.88-7.22-24.22-9.87-36.6-3.41-15.9-7.11-31.73-10.82-47.56-.72-3.08-1.88-6.11-3.21-8.99-2.23-4.84-5.12-5.98-10.11-4.13-1.77.66-3.46,1.63-5.04,2.69-2.9,1.97-5.64,4.18-8.55,6.15-1.72,1.17-2.45,2.51-2.59,4.67-1.36,21.16-5.44,41.72-13.81,61.31-6.54,15.29-15,29.36-26.69,41.3-9.73,9.94-21.15,17.02-34.87,20.13-8.21,1.86-16.42,1.98-24.72.77-9.89-1.44-19.78-2.86-29.71-4.03-4.63-.55-9.36-.86-14-.6-5.4.3-10.2,2.77-15.02,5.9-2.61-2.28-5.23-4.57-8.03-7.02.29-1.02.61-2,.84-3.01.87-3.72,1.91-7.41,2.53-11.18.95-5.76-.14-11.27-3.19-16.26-2.44-3.98-5.14-7.79-7.92-11.97,2.14-2.92,4.44-6.06,6.76-9.22,15.54,6.8,30.26,7.22,44.07-4.21,2.79,2.09,5.66,4.25,8.75,6.57-.43,1.14-.88,2.19-1.22,3.27-1.35,4.25-2.84,8.46-3.94,12.77-.85,3.32-.62,6.76.26,10.11,1.01,3.85,3.13,6.95,6.38,9.26,3.55,2.52,7.53,3.99,11.81,4.48,15.2,1.71,27.85-3.12,37.68-14.98,6.66-8.04,10.47-17.44,13.06-27.42,2.89-11.16,4.51-22.55,5.02-34.03.58-12.96.94-25.96.62-38.92-.52-21.23-3.14-42.21-10.06-62.43-3.85-11.24-8.81-21.91-16.6-31.04-7.44-8.73-16.6-14.57-28.15-16.08-28.07-3.68-46.3,14.71-50.95,35.55-3.7,16.61.89,31.1,11.49,44.01,10.45,12.72,23.7,21.15,39.38,25.93,1.01.31,2.01.62,3.41,1.05ZM163.06,60.38c8.43,22.16,11.08,44.8,12.13,68.24,19.9-13.69,40.08-25.97,57.28-42.49-.41-.58-.66-1.04-1-1.43-9.66-11.2-19.29-22.42-29.02-33.56-1.74-1.99-3.77-3.75-5.81-5.44-3.33-2.78-7.16-3.04-11.12-1.64-1.59.56-3.24,1.22-4.56,2.23-5.99,4.58-11.86,9.3-17.91,14.08Z"/><path class="cls-1" d="M507.73,125.04c-4.89,3.7-9.31,7.49-14.17,10.59-4.19,2.68-5.55,5.84-5.49,10.84.3,24.14.14,48.28.14,72.42,0,.95-.02,1.9,0,2.85.14,5.25,4.24,9.37,9.52,9.36,1.02,0,2.21-.61,3.03-1.29,3.48-2.89,6.86-5.91,10.46-9.04,2.37,2.6,4.61,5.06,6.95,7.64-.79.9-1.38,1.62-2.02,2.28-13.35,13.78-26.73,27.53-40.04,41.35-1.45,1.5-2.9,2.18-4.96,2.05-2.41-.15-4.84-.03-7.39-.03-5.29-12.47-16.14-17.77-28.2-22.07v-10.36c.12-.09.2-.19.29-.2,5.65-.79,8.34-4.63,9.57-9.68.74-3.06,1.42-6.24,1.42-9.36.08-56.5.08-112.99.03-169.49,0-8.93-1.99-17.41-6.74-25.1-.16-.26-.23-.58-.5-1.27,2.91-2.24,5.89-4.53,9.12-7.01,9.7,7.93,12.87,19.07,15.77,30.64,1.11-.69,1.2-1.75,1.52-2.64,3.34-9.15,8.06-17.45,14.86-24.5,9.99-10.34,22.24-15.46,36.54-15.87.72-.02,1.43.08,2.33.13v9.51c-.72.15-1.51.35-2.31.48-1.89.3-3.8.47-5.67.85-11.34,2.31-18.43,9.02-21.26,20.32-1.67,6.66-2.29,13.42-2.31,20.24-.07,20.65-.03,41.29-.03,61.94,0,.81,0,2.42,0,4,17.56-13.07,34.5-25.68,51.4-38.26,2.53,2.47,4.93,4.81,7.23,7.05-.09.41-.07.68-.19.79-4.31,4.01-4.09,7.29-.93,11.31,1.82,2.32,3.58,4.69,5.39,7.02,8.48,10.89,15.03,22.89,20.03,35.71,4.47,11.44,5.93,23.43,5.76,35.66-.5,35.13-12.28,66.6-31.02,95.82-12.85,20.03-27.98,38.27-44.05,55.76-.35.38-.75.69-1.28,1.18-2.71-1.95-5.33-3.84-8.25-5.94.76-1.12,1.42-2.15,2.12-3.14,8.62-12.05,16.6-24.51,23.62-37.57,10.62-19.77,17.26-41.43,19.62-63.75,1.09-10.33,1.48-20.7.87-31.1-1.04-17.57-6.57-34.59-15.88-49.52-4.43-7.11-9.25-13.89-14.93-20.61Z"/><path class="cls-1" d="M767.76,244.64v-10.09c.08-.12.16-.37.32-.45,4.76-2.41,6.75-6.52,7.11-11.6.25-3.59.59-7.19.6-10.79.05-21,.14-42-.04-63-.06-7.51-.84-15.02-1.29-22.54-.04-.73-.1-1.46-.16-2.41,14.45-8.43,28.9-16.85,43.79-25.54-1.27-.76-2.22-1.31-3.15-1.89-9-5.59-18.11-11.02-26.97-16.84-6.22-4.08-11.83-8.96-16.16-15.15-5.44-7.77-7.66-16.24-5.53-25.6,1.81-7.95,6.72-13.8,13.06-18.6,9.12-6.91,19.61-10.39,30.78-11.94,5.24-.73,10.55-.92,15.83-1.33.81-.06,1.64,0,2.64,0v10.42c-1.35.1-2.68.21-4.01.3-3.79.25-7.48.93-10.91,2.61-7.32,3.59-10.33,12.44-7,19.88,1.69,3.77,4.35,6.82,7.68,9.22,5.33,3.84,10.74,7.59,16.29,11.11,10.56,6.71,21.25,13.21,31.86,19.84,11.9,7.43,23.41,15.36,33.38,25.33,11.18,11.18,18.05,24.53,19.73,40.32,1.31,12.35-.7,24.33-5.22,35.85-5.14,13.1-12.21,25.16-20.27,36.65-10.2,14.54-22.25,27.54-34.1,40.7-4.12,4.57-8.37,9.02-12.5,13.58-.96,1.06-1.97,1.73-3.4,1.59-.22-.02-.59-.04-.82-.02-4.63.42-9.08.24-12.24-3.92-6.5-3.56-12.87-7.38-19.53-10.63-11.92-5.81-24.3-10.55-37.08-14.15-.81-.23-1.6-.53-2.68-.9ZM816.89,221.82c.37.34.51.52.69.62,10.01,4.98,19.79,10.35,28.87,16.92,2.96,2.14,5.8,1.72,8.47-.46,1.39-1.14,2.79-2.36,3.82-3.81,2.04-2.85,4.05-5.75,5.67-8.85,11.52-22.09,15.3-45.61,12.26-70.22-1.35-10.89-5.93-20.31-14.09-27.89-8.79-8.17-18.77-14.63-29.02-20.75-1.21-.72-2.12-.5-3.22.13-3.51,2-6.99,4.09-10.63,5.82-2.29,1.09-2.88,2.54-2.87,4.97.08,33.52.05,67.04.05,100.56,0,1.05,0,2.1,0,2.96Z"/><path class="cls-1" d="M677.73,88.84c.18,1.43.32,2.47.47,3.65,17.76,8.6,35.91,16.01,55.64,19.5v10.66c-2.19.96-4.8,2.29-7.14,2.19-.57-.02-1.06.36-1.17.92-.93,4.78-1.95,9.9-1.96,14.94-.07,25.11-.07,50.23,0,75.34,0,3.03.46,6.06.8,9.08,0,.07.02.15.04.22,1.39,5.47,4.21,7.37,8.72,5.92,3.13-1.01,5.56-3.07,7.9-5.25,1.23-1.14,2.41-2.34,3.78-3.67,2.58,2.46,5.03,4.79,7.75,7.39-13.05,14.96-26.02,29.84-39.17,44.92-2.85-2.13-5.53-4.14-8.4-6.29,1.11-1.31,2.06-2.41,3.2-3.75-.74-.45-1.4-.87-2.08-1.26-3.88-2.2-7.92-4.16-11.59-6.67-2.77-1.9-5.26-4.33-7.51-6.84-3.68-4.11-5.4-9.09-5.36-14.64.01-1.38,0-2.76,0-4.05-.23-.14-.32-.2-.41-.24-.09-.04-.24-.1-.29-.06-19.3,14.5-38.59,29-58.18,43.74-2.33-2.65-4.61-5.24-6.97-7.94.9-.76,1.64-1.35,2.35-1.97,3.2-2.83,2.54-2.49-.77-8.24-.12-.21-.26-.42-.41-.62-7.12-9.43-12.91-19.56-16.9-30.63-4.83-13.39-6.87-27.21-5.9-41.4.87-12.57,5.22-24.03,11.93-34.63,7.98-12.62,18.17-23.3,29.39-33.03,10.55-9.16,21.26-18.13,31.83-27.26.15-.13.34-.19.53-.17,3.22.29,6.36.16,9.89.16ZM649.83,119.2c-5.78,5.3-10.02,11.79-12.08,19.62-1.91,7.24-2.47,14.66-2.93,22.1-1.09,17.71.59,35.06,6.71,51.83,2.04,5.6,4.14,11.19,7.73,16.03,3.42,4.6,5.48,5.08,10.07,1.85,6.52-4.59,12.81-9.51,19.3-14.14,1.94-1.38,2.64-2.88,2.63-5.28-.09-24.36-.06-48.73-.06-73.09,0-1.05,0-2.1,0-3.22-10.5-5.25-20.84-10.42-31.38-15.69Z"/><path class="cls-1" d="M369.06,265.45c-1.07-.58-2.01-1.05-2.91-1.59-3.3-1.94-6.61-3.85-9.86-5.87-8.05-5.01-11.59-12.52-11.5-21.78.08-7.98.48-15.95.73-23.92.13-4.25.31-8.51.31-12.76.03-18.19.04-36.38-.02-54.58,0-2.76-.21-5.54-.62-8.26-.63-4.12-2.92-6.07-7.08-5.59-2.57.29-5.2,1.19-7.49,2.4-2.89,1.53-5.46,3.65-8.54,5.77-2.13-2.32-4.4-4.79-6.89-7.51,17.83-13.53,32.68-29.88,47.35-46.71,3.13,1.83,6.11,3.57,9.23,5.39-1.16,1.9-2.11,3.55-3.14,5.13-1.48,2.27-1.26,4.46.33,6.51,1.04,1.33,2.15,2.67,3.44,3.75,5.42,4.54,11.38,8.21,17.99,10.75,2.07.79,4.27,1.22,6.58,1.86v10.15c-6.16,1.3-8.41,5.69-9.04,11.3-.21,1.9-.38,3.81-.38,5.72-.02,23.83-.06,47.66.03,71.49.01,3.59.4,7.23,1.05,10.76.62,3.35,3.72,5.23,6.92,4.5,1.3-.3,2.61-.99,3.67-1.82,2.77-2.15,5.4-4.47,8.08-6.74.88-.75,1.72-1.56,2.81-2.56,2.56,2.34,5.03,4.61,7.77,7.11-13.88,15.5-27.61,30.84-41.45,46.29-3.08-1.92-5.94-3.71-8.98-5.6.51-1.15.97-2.18,1.59-3.59Z"/><path class="cls-2" d="M345.4,69.1c1.05-5.17,1.99-9.95,2.99-14.72,1.69-8.1,3.3-16.23,5.18-24.29,1.33-5.71,3.44-11.17,6.69-16.11,3.25-4.94,7.36-8.79,13.29-10.27,3.78-.94,7.58-1.01,11.34.04,4.65,1.3,7.26,4.49,8.27,9.16,1.04,4.78.16,9.28-1.74,13.67-2.17,5.03-5.24,9.49-8.85,13.56-8.1,9.15-16.34,18.17-24.48,27.29-1.08,1.21-2.21,1.77-3.86,1.7-2.84-.12-5.69-.03-8.84-.03Z"/></svg>